<svg version="1.1" id="Layer_1" xmlns="http://www.w3.org/2000/svg" xmlns:xlink="http://www.w3.org/1999/xlink" x="0px" y="0px"
	 width="100%" viewBox="0 0 1000 1000" enable-background="new 0 0 1000 1000" xml:space="preserve">
<path fill="#000000" opacity="1.000000" stroke="none" 
	d="
M480.000000,1001.000000 
	C320.000000,1001.000000 160.500000,1001.000000 1.000000,1001.000000 
	C1.000000,667.666687 1.000000,334.333344 1.000000,1.000000 
	C334.333344,1.000000 667.666687,1.000000 1001.000000,1.000000 
	C1001.000000,334.333344 1001.000000,667.666687 1001.000000,1001.000000 
	C827.500000,1001.000000 654.000000,1001.000000 480.000000,1001.000000 
M455.958679,352.970673 
	C469.089142,352.981049 482.219971,353.036041 495.349548,352.933228 
	C496.671814,352.922882 497.986572,351.957764 499.304810,351.435730 
	C499.121460,351.001221 498.938110,350.566711 498.754791,350.132202 
	C484.164581,350.132202 469.574402,350.132202 454.336823,349.886353 
	C451.645538,349.922760 448.954224,349.959137 446.648590,349.375427 
	C447.154999,348.713989 447.686920,348.070374 448.163757,347.388275 
	C451.941711,341.983795 450.729279,338.628479 444.238800,337.675293 
	C440.664368,337.150330 436.897186,337.173370 433.307739,337.643311 
	C414.842407,340.060608 397.272400,345.593964 380.711639,354.048645 
	C367.272980,360.909515 355.709320,370.292755 344.868835,382.425262 
	C353.438232,382.425262 360.955658,382.425262 368.370819,382.425262 
	C369.533569,389.143372 369.097260,390.188751 363.449524,392.310028 
	C346.176147,398.798004 329.180756,397.768890 312.512329,390.085510 
	C311.376862,389.562103 310.394623,388.706268 309.249329,387.943970 
	C320.880280,378.018982 321.393433,370.617859 311.999817,357.303589 
	C316.014740,355.246521 320.086395,353.160339 325.018402,351.030334 
	C329.130188,350.456329 333.241974,349.882324 337.459503,349.293579 
	C335.572693,357.129639 333.840851,364.322113 331.833252,372.659973 
	C335.198730,371.594391 337.365845,370.959564 339.498749,370.225250 
	C371.348724,359.260315 397.469788,339.871521 419.402191,314.769318 
	C426.563080,306.573486 432.761414,297.366302 438.278717,287.963776 
	C442.050262,281.536285 439.068909,277.983887 431.521118,278.127594 
	C430.196716,278.152802 428.799225,278.156494 427.566254,278.564880 
	C417.338654,281.952454 406.685852,284.474762 397.024750,289.072418 
	C372.215088,300.879272 351.684235,317.542511 340.324219,343.610565 
	C339.696869,345.050201 337.209778,345.952332 335.404694,346.550385 
	C331.332764,347.899536 327.145660,348.901093 322.285309,349.779327 
	C316.254456,351.383301 310.283783,353.945038 304.176270,354.328613 
	C297.745300,354.732513 291.200134,352.658569 284.674805,352.384888 
	C276.197235,352.029266 269.704041,357.095947 267.998749,364.542999 
	C266.008698,373.233643 269.719788,381.585999 277.751007,384.700317 
	C283.705170,387.009186 290.010254,389.511230 296.235718,389.728302 
	C303.124817,389.968506 309.379303,390.979401 315.849396,394.780273 
	C318.911957,395.608490 321.974518,396.436707 325.649658,397.661530 
	C326.129425,397.671967 326.609222,397.682404 327.591858,398.064117 
	C328.406921,398.105042 329.221954,398.145935 330.744202,398.563385 
	C331.534241,398.578583 332.324280,398.593781 333.811584,398.983521 
	C338.832001,398.863831 343.852448,398.744141 349.664185,398.774841 
	C350.431427,398.572601 351.198669,398.370361 352.556458,398.371765 
	C353.333038,398.133789 354.109589,397.895844 355.625519,397.742126 
	C356.072815,397.548615 356.520081,397.355103 357.664978,397.283203 
	C360.329956,396.273376 362.994934,395.263550 366.285278,394.208832 
	C367.564301,393.236359 368.843323,392.263885 370.639252,391.050232 
	C370.858673,390.354492 371.078064,389.658752 371.739807,388.238190 
	C371.370850,384.921722 373.006409,383.525848 376.187439,383.223419 
	C378.488312,383.004639 380.749054,382.363312 383.480682,382.092163 
	C384.245819,381.861847 385.010986,381.631531 386.422729,381.542786 
	C387.280731,381.365326 388.138733,381.187866 389.681458,381.176056 
	C396.829010,380.877991 404.002869,380.062866 411.116882,380.424438 
	C418.511169,380.800232 426.532227,380.750946 433.082001,383.620300 
	C453.310059,392.481842 469.443268,405.846985 474.010864,429.090790 
	C475.981384,439.118622 481.085541,447.312317 488.040131,454.485077 
	C490.218567,456.731873 491.459442,458.748627 491.101685,462.223236 
	C490.555054,467.531677 495.465637,471.933136 500.925262,471.924255 
	C506.357300,471.915405 510.977753,467.392273 510.901001,462.158661 
	C510.823029,456.842255 506.262817,452.492065 500.658600,452.895386 
	C498.130768,453.077332 495.673676,454.242737 493.031769,455.006012 
	C485.266754,448.647491 479.928802,440.333832 477.351410,429.953308 
	C473.199097,413.229584 465.748138,398.838806 450.114441,389.900787 
	C445.372986,387.190002 440.876984,384.049927 437.308258,381.046143 
	C444.094971,380.946655 450.881683,380.847198 458.328339,381.045166 
	C462.225372,383.874664 466.305359,386.486053 469.986450,389.573090 
	C483.011566,400.496246 497.722198,407.170746 514.870239,407.781281 
	C517.888306,407.888733 519.874329,408.618835 521.730896,411.340851 
	C524.482544,415.375000 528.891907,416.059814 533.327698,414.257660 
	C537.630188,412.509644 539.773315,409.075195 539.220825,404.354523 
	C538.691528,399.832001 535.796265,397.265808 531.563049,396.205261 
	C527.238525,395.121765 522.709106,397.234253 520.582581,401.200745 
	C519.969788,402.343750 519.588806,403.611023 519.029968,404.999146 
	C507.672516,404.805176 496.575806,403.438507 486.868103,397.336273 
	C479.027649,392.407837 471.774902,386.544434 465.296417,381.024780 
	C474.269073,380.999420 483.242859,381.037720 492.213318,380.884186 
	C493.661652,380.859406 495.984711,380.355713 496.375000,379.429413 
	C497.734528,376.202698 498.422546,372.693024 499.365875,369.290924 
	C498.750519,369.003876 498.135162,368.716797 497.519806,368.429718 
	C496.675903,369.795166 495.292267,371.086243 495.091827,372.540405 
	C494.544678,376.509735 492.526398,377.457336 488.720032,377.395050 
	C478.933533,377.234833 469.139160,377.554382 458.735687,377.398987 
	C451.904419,373.983582 445.073120,370.568207 439.289307,367.138794 
	C466.939606,367.109558 494.590088,367.031647 522.239685,367.159973 
	C524.094604,367.168579 526.338684,368.323395 527.725708,369.651306 
	C534.220947,375.869415 540.668518,382.161224 546.746399,388.781708 
	C550.046082,392.375977 553.503967,393.762390 558.429382,393.745667 
	C610.732422,393.568085 663.036255,393.644196 715.339905,393.612183 
	C718.234070,393.610413 720.497681,393.654358 722.031372,397.045258 
	C723.939087,401.263367 728.901672,402.889160 733.074646,401.647491 
	C737.361389,400.371979 740.148987,396.501404 740.104858,391.886078 
	C740.061340,387.332764 737.108826,383.409119 732.862610,382.261963 
	C728.786011,381.160645 723.788513,383.032104 721.839905,387.067871 
	C720.603210,389.629333 719.085266,390.145966 716.515076,390.142853 
	C663.212036,390.078308 609.908936,390.126587 556.606201,389.977234 
	C554.447998,389.971191 551.814209,388.754120 550.221497,387.239471 
	C542.982239,380.354950 536.120544,373.074249 528.912109,366.155731 
	C527.541565,364.840302 525.216553,363.838409 523.332947,363.840027 
	C493.021149,363.866089 462.709564,364.094666 432.397644,364.209930 
	C430.452759,364.217316 428.505798,363.675537 427.343597,363.009521 
	C432.643219,359.573761 437.942841,356.138000 444.105957,352.785645 
	C447.748352,352.805328 451.390717,352.824982 455.958679,352.970673 
M94.119240,616.909729 
	C102.124908,598.262817 110.130577,579.615967 118.136246,560.969055 
	C118.501915,561.053711 118.867592,561.138367 119.233261,561.223022 
	C119.233261,580.739746 119.233261,600.256470 119.233261,619.739136 
	C124.817368,619.739136 129.892105,619.739136 134.828659,619.739136 
	C134.828659,586.424377 134.828659,553.379089 134.828659,520.160767 
	C131.627731,520.160767 128.757538,520.475159 125.985931,520.086487 
	C121.905670,519.514282 120.303108,521.334167 118.768486,524.934143 
	C108.998093,547.853821 98.933090,570.647949 88.946442,593.475220 
	C88.381905,594.765686 87.652504,595.984070 86.778267,597.660950 
	C86.004509,596.004700 85.501579,594.979980 85.041832,593.936340 
	C74.796127,570.678528 64.576370,547.409119 54.264034,524.180908 
	C53.601425,522.688416 52.342270,520.497986 51.168701,520.368225 
	C46.964989,519.903442 42.678638,520.186157 38.434608,520.186157 
	C38.434608,553.819519 38.434608,586.738037 38.434608,619.796753 
	C43.786060,619.796753 48.873154,619.796753 54.472031,619.796753 
	C54.472031,600.410217 54.472031,581.229065 54.472031,562.047913 
	C56.020817,563.302368 56.732834,564.710876 57.361286,566.155762 
	C64.648743,582.910767 71.914902,599.674988 79.207481,616.427734 
	C81.188118,620.977783 90.672958,621.768799 94.119240,616.909729 
M543.498230,620.006104 
	C547.664185,619.970276 551.857910,620.230225 555.990967,619.843018 
	C568.206055,618.698608 579.044678,614.863831 583.717712,602.154053 
	C588.963867,587.885559 583.076660,575.590881 567.828735,568.345093 
	C575.022461,565.054321 580.172241,560.111145 581.969116,552.398438 
	C585.646729,536.613403 576.037598,522.855225 558.794067,521.215454 
	C544.744690,519.879456 530.515015,520.429138 516.364685,520.171875 
	C512.938232,520.109558 509.509674,520.162598 505.950989,520.162598 
	C505.950989,553.706360 505.950989,586.674011 505.950989,620.006104 
	C518.231201,620.006104 530.365112,620.006104 543.498230,620.006104 
M711.695496,549.142700 
	C709.957275,549.142700 708.218994,549.142700 706.518677,549.142700 
	C706.312073,552.622498 706.154480,555.277710 705.952332,558.682617 
	C694.787170,542.961670 667.475464,543.019043 657.119507,563.564697 
	C654.847534,568.072083 653.264160,573.179688 652.569519,578.178406 
	C650.915588,590.081238 652.679565,601.478210 660.650513,611.070984 
	C665.649597,617.087280 672.280823,620.340576 680.116455,620.990723 
	C690.285889,621.834656 699.021606,618.972534 706.251770,609.660583 
	C706.251770,613.841309 706.251770,616.713745 706.251770,619.744385 
	C712.313232,619.744385 717.871216,619.744385 723.439087,619.744385 
	C723.439087,596.119324 723.439087,572.762695 723.439087,549.142700 
	C719.596558,549.142700 716.116211,549.142700 711.695496,549.142700 
M384.637604,557.161316 
	C375.303375,568.445007 373.647827,581.547485 376.416809,595.285767 
	C378.836182,607.289490 385.384064,616.556335 397.782410,619.880432 
	C409.550903,623.035583 420.245117,620.996033 428.405212,610.970032 
	C428.532440,610.813721 429.019745,610.950500 429.737183,610.950500 
	C429.737183,613.891235 429.737183,616.838501 429.737183,619.657227 
	C435.711578,619.657227 441.281555,619.657227 446.713989,619.657227 
	C446.713989,596.059814 446.713989,572.813293 446.713989,549.358276 
	C441.039490,549.358276 435.614014,549.358276 429.988190,549.358276 
	C429.768646,552.121277 429.556000,554.797363 429.312866,557.857544 
	C413.962738,544.231567 398.240631,543.959961 384.637604,557.161316 
M895.818359,599.587708 
	C899.132568,609.515015 905.324158,616.917297 915.559570,619.776978 
	C927.984619,623.248474 939.096069,620.767761 948.163452,609.249451 
	C948.163452,613.640808 948.163452,616.721619 948.163452,619.774780 
	C953.952087,619.774780 959.381042,619.774780 964.794800,619.774780 
	C964.794800,596.166138 964.794800,572.790100 964.794800,549.431213 
	C959.022522,549.431213 953.600952,549.431213 947.763550,549.431213 
	C947.763550,552.588623 947.763550,555.464905 947.763550,558.890320 
	C934.770996,541.206909 905.506104,544.013611 896.694824,567.450867 
	C892.800659,577.808960 892.739441,588.258423 895.818359,599.587708 
M196.314835,548.117920 
	C194.494476,547.910706 192.678955,547.595764 190.852982,547.513855 
	C178.405518,546.955139 167.365921,550.087708 159.362427,560.306335 
	C149.359451,573.077759 149.523132,595.668701 159.516678,608.507629 
	C169.022781,620.720276 188.584396,624.884033 204.165390,618.011169 
	C217.585571,612.091431 225.049393,597.966187 223.808868,580.835938 
	C222.571213,563.745178 213.722717,552.938538 196.314835,548.117920 
M792.648193,620.005615 
	C797.769958,620.005615 802.891724,620.005615 807.930542,620.005615 
	C807.930542,602.778259 808.601440,585.938599 807.728210,569.179443 
	C806.965332,554.538391 796.148071,546.442505 781.416382,547.448914 
	C772.122803,548.083862 764.807312,552.157043 759.183411,560.163635 
	C758.621887,556.096863 758.169678,552.821716 757.699341,549.415283 
	C752.299316,549.415283 747.051270,549.415283 742.311035,549.415283 
	C742.311035,573.065857 742.311035,596.442993 742.311035,619.657837 
	C748.689270,619.657837 754.266479,619.657837 759.962280,619.657837 
	C759.962280,606.484070 759.894714,593.660767 760.015503,580.839233 
	C760.041809,578.047546 760.344910,575.132202 761.206970,572.498413 
	C763.774414,564.654480 771.630066,560.360535 780.334534,561.687805 
	C787.324524,562.753540 790.377869,567.010437 790.803467,576.314636 
	C790.856689,577.479187 790.839111,578.647339 790.839294,579.813843 
	C790.841614,591.646545 790.810425,603.479370 790.877625,615.311707 
	C790.886475,616.861572 791.395691,618.408630 792.648193,620.005615 
M284.212585,583.164490 
	C279.965027,581.772034 275.748840,580.272705 271.461426,579.016235 
	C266.849243,577.664429 261.955933,577.025391 257.613739,575.106079 
	C255.541443,574.190186 253.278580,571.041809 253.258453,568.884460 
	C253.237671,566.658630 255.350647,563.528748 257.411499,562.391357 
	C259.991882,560.967224 263.656433,560.262817 266.524750,560.850281 
	C273.690399,562.317871 280.670532,564.690918 288.081329,566.802063 
	C289.235016,564.100281 290.843536,560.333313 292.397278,556.694641 
	C280.816223,546.509766 259.838104,544.388916 247.115067,551.917419 
	C245.550400,552.843262 244.030334,553.924316 242.706726,555.165039 
	C232.382065,564.842529 235.108276,581.396851 248.341629,586.702148 
	C255.222519,589.460815 262.750427,590.575317 269.930298,592.627625 
	C276.171570,594.411682 278.700195,597.100769 277.939697,601.115967 
	C276.933411,606.428833 272.566742,607.340698 268.162415,607.990295 
	C267.180328,608.135132 266.167114,608.069885 265.168182,608.098999 
	C255.619095,608.377930 247.056808,605.276794 238.976700,599.906738 
	C237.275177,604.199219 235.759613,608.022522 234.277573,611.761292 
	C245.791763,622.336487 272.422638,624.369446 285.216431,616.085632 
	C297.622314,608.053040 296.390198,589.289490 284.212585,583.164490 
M830.871521,560.385742 
	C828.370544,566.454041 824.812439,572.315491 823.576904,578.631287 
	C820.508057,594.318481 827.089661,608.988464 839.267944,616.265015 
	C851.258667,623.429504 871.999084,622.603333 882.905457,614.326416 
	C884.021973,613.479004 885.103882,611.279175 884.782471,610.090759 
	C883.845642,606.626831 882.188782,603.357666 880.780090,599.929260 
	C866.523254,610.632507 852.537903,608.138062 846.700134,601.732178 
	C839.742737,594.097595 839.003174,576.254700 846.072510,568.209351 
	C848.533936,565.408081 852.363953,563.121460 855.983276,562.160461 
	C865.081970,559.744324 873.171265,563.183228 880.805542,568.646240 
	C881.948914,565.865723 882.713257,563.287231 884.011353,561.013550 
	C886.130554,557.301575 885.036926,555.118774 881.546570,553.052002 
	C868.122559,545.103333 844.197388,544.088074 830.871521,560.385742 
M341.501099,621.102661 
	C349.835632,621.081055 357.703156,619.266113 364.641937,614.514954 
	C365.828308,613.702698 367.157623,611.532471 366.857574,610.405945 
	C365.907867,606.840332 364.216949,603.472107 362.776062,599.937683 
	C349.165192,609.098694 335.926575,609.612610 328.575897,601.554565 
	C321.593201,593.899902 321.329376,576.127563 328.076141,567.888306 
	C335.182922,559.209412 348.156219,559.382874 362.847412,568.551331 
	C363.976471,565.739990 364.803711,562.828613 366.257294,560.273682 
	C368.128571,556.984314 366.985474,555.171204 364.121674,553.468445 
	C354.018555,547.461121 343.153168,545.964539 331.877869,548.573792 
	C313.576569,552.808960 303.011414,569.368896 305.202911,589.706482 
	C307.294067,609.112976 320.087616,620.478699 341.501099,621.102661 
M602.760925,549.150208 
	C599.956726,548.725769 600.044800,550.406799 600.087646,552.468079 
	C600.443848,569.608032 600.726440,586.749634 600.984070,603.891479 
	C601.063293,609.164551 600.996338,614.439819 600.996338,619.708862 
	C607.041260,619.708862 612.590271,619.708862 618.429993,619.708862 
	C618.429993,618.109253 618.424500,616.792358 618.430847,615.475464 
	C618.488281,603.487244 618.148376,591.479797 618.724304,579.516479 
	C619.251221,568.570862 626.200867,562.718201 637.168396,563.011902 
	C640.039795,563.088867 642.895569,563.746460 645.770386,564.139038 
	C645.770386,558.756287 645.770386,553.662109 645.770386,547.244263 
	C640.153564,547.961975 634.590210,547.647461 629.939941,549.556824 
	C625.336914,551.446716 621.655151,555.580444 617.525085,558.764038 
	C617.126221,555.991699 616.643127,552.634155 616.141846,549.149719 
	C611.689270,549.149719 607.699280,549.149719 602.760925,549.150208 
M523.502258,353.001923 
	C571.135620,353.001923 618.768982,353.001923 666.315674,353.001923 
	C670.161316,360.241425 673.837769,362.426361 679.555115,360.981506 
	C683.293518,360.036743 686.521790,355.684662 686.525940,351.583893 
	C686.530396,347.184784 683.318359,342.945587 679.229248,341.953674 
	C673.806152,340.638184 669.944519,342.955566 666.322754,349.831482 
	C643.944519,349.831482 621.463745,349.831512 598.982971,349.831512 
	C569.833557,349.831543 540.684082,349.805664 511.534943,349.895020 
	C509.754578,349.900482 507.977051,350.818542 506.198181,351.312012 
	C506.323761,351.875305 506.449310,352.438629 506.574890,353.001923 
	C511.884430,353.001923 517.193970,353.001923 523.502258,353.001923 
M531.500000,322.129364 
	C528.003601,322.129364 524.507202,322.129364 521.010803,322.129364 
	C509.776093,322.129364 509.763580,322.125702 506.646545,332.774811 
	C503.865479,342.276215 501.116272,351.786957 498.352997,361.293579 
	C498.909363,361.602936 499.465759,361.912292 500.022156,362.221649 
	C500.865082,360.940735 502.068695,359.768555 502.492920,358.361420 
	C505.417267,348.661957 508.271759,338.938721 510.934204,329.164673 
	C511.698456,326.359039 512.725159,325.086182 515.950500,325.134003 
	C529.766479,325.338837 543.588928,325.123169 557.404236,325.349976 
	C559.057373,325.377136 561.211121,326.795166 562.218384,328.216522 
	C565.073059,332.244659 569.319458,334.359344 573.789490,333.021667 
	C578.266174,331.681976 580.658142,328.436951 580.957825,323.853119 
	C581.234253,319.623871 577.742615,315.102509 573.774597,314.114014 
	C569.231506,312.982208 564.470337,314.746613 562.411682,319.198395 
	C561.129211,321.971680 559.424011,322.180511 556.974487,322.157867 
	C548.816895,322.082428 540.658264,322.129364 531.500000,322.129364 
M636.015808,709.609131 
	C636.015808,711.720581 636.015808,713.831970 636.015808,715.935120 
	C630.839417,715.935120 626.257629,715.935120 621.725769,715.935120 
	C620.493164,704.381409 620.493164,704.381409 617.817566,704.474426 
	C617.817566,712.782959 617.743347,721.101929 617.914185,729.415894 
	C617.934875,730.424500 619.276672,731.406006 620.006165,732.400024 
	C620.509094,732.120911 621.012085,731.841797 621.515015,731.562683 
	C621.515015,727.788879 621.515015,724.015076 621.515015,719.999451 
	C626.479980,719.999451 631.039917,719.999451 636.001709,719.999451 
	C636.001709,724.044861 636.001709,727.816711 636.001709,731.588501 
	C636.478271,731.864624 636.954773,732.140747 637.431335,732.416809 
	C638.208679,731.400085 639.633118,730.400024 639.659912,729.363892 
	C639.853821,721.872375 639.853088,714.371399 639.671082,706.879333 
	C639.643799,705.755310 638.348938,704.661987 637.640442,703.554504 
	C637.166565,703.791687 636.692688,704.028870 636.218811,704.266052 
	C636.151123,705.732483 636.083435,707.198975 636.015808,709.609131 
M364.744537,732.047485 
	C367.563141,732.023682 370.399353,732.192566 373.196869,731.937500 
	C379.774353,731.337769 383.782410,726.732483 384.300598,719.472290 
	C384.868103,711.521240 381.594360,705.646240 375.106842,704.496887 
	C371.016266,703.772095 366.692841,704.361694 362.166779,704.361694 
	C362.166779,712.970520 362.119293,721.239868 362.238708,729.506836 
	C362.250916,730.352844 363.263031,731.184448 364.744537,732.047485 
M596.270569,707.921509 
	C598.327637,709.731079 600.384705,711.540649 602.441833,713.350220 
	C601.591553,705.923767 596.918274,702.872009 590.273682,703.867981 
	C583.501465,704.883057 579.449036,711.175903 580.042603,719.755249 
	C580.560913,727.245300 585.424377,732.304993 592.206909,732.410034 
	C598.257751,732.503784 602.372803,729.057312 603.068604,722.141235 
	C601.311462,723.637878 600.084656,724.391357 599.244080,725.451172 
	C596.230774,729.250061 591.636414,730.250488 587.799011,727.788330 
	C583.916748,725.297485 582.222595,718.176941 584.236572,712.816467 
	C586.001099,708.119934 589.646179,706.434448 596.270569,707.921509 
M557.528564,728.949097 
	C556.067688,728.880066 554.606750,728.810974 552.987732,728.734497 
	C552.987732,725.724915 552.987732,722.987122 552.987732,719.716675 
	C555.518494,719.716675 557.824707,719.916321 560.076477,719.651733 
	C561.791321,719.450256 563.436951,718.659546 565.113342,718.130981 
	C563.357727,717.515076 561.642517,716.609619 559.836121,716.357178 
	C557.618408,716.047424 555.324463,716.283325 553.090942,716.283325 
	C553.090942,712.851379 553.090942,710.131104 553.090942,707.105835 
	C556.754333,707.105835 560.066223,707.203674 563.365234,707.041382 
	C564.261658,706.997314 565.119507,706.168823 565.995056,705.700195 
	C565.222229,705.126587 564.464722,704.082214 563.674072,704.056458 
	C558.906250,703.901245 554.130798,703.979309 549.304382,703.979309 
	C549.304382,713.617554 549.304382,722.674561 549.304382,732.050903 
	C552.574219,732.050903 555.559875,732.221863 558.515869,731.999268 
	C561.097412,731.804993 563.645447,731.167480 566.208313,730.725769 
	C563.630371,730.133545 561.052368,729.541321 557.528564,728.949097 
M463.094788,704.281860 
	C462.914337,712.900391 462.670959,721.518982 462.667572,730.137573 
	C462.667297,730.861023 464.279419,731.585144 466.071869,733.088562 
	C466.071869,728.559875 466.071869,725.458923 466.071869,721.833862 
	C468.922668,721.833862 471.401947,722.065430 473.822113,721.785522 
	C478.825165,721.206970 481.863373,717.462341 481.672668,712.493713 
	C481.490967,707.760742 478.381561,704.442383 473.458130,704.092224 
	C470.309631,703.868286 467.133057,704.039612 463.094788,704.281860 
M444.891449,716.343872 
	C441.453613,716.343872 438.015778,716.343872 434.670227,716.343872 
	C434.670227,712.851562 434.670227,710.118469 434.670227,706.883423 
	C439.268219,706.883423 443.509857,706.883423 447.978241,706.883423 
	C446.469208,703.651794 440.809265,703.014832 431.144867,704.530823 
	C431.144867,713.562683 431.144867,722.613708 431.144867,732.018188 
	C436.209839,732.018188 441.007690,732.074951 445.801270,731.957642 
	C446.530090,731.939880 447.239197,731.114807 447.957397,730.663086 
	C447.181824,730.102173 446.427704,729.095459 445.626984,729.056885 
	C441.995789,728.882080 438.351471,728.980347 434.532074,728.980347 
	C434.532074,725.807190 434.532074,723.052856 434.532074,719.659363 
	C438.015778,719.659363 441.305756,719.733948 444.590668,719.636658 
	C447.428528,719.552612 447.819427,718.389221 444.891449,716.343872 
M398.867645,726.412048 
	C398.867645,728.175659 398.867645,729.939270 398.867645,732.022400 
	C404.078644,732.022400 408.709961,732.094360 413.335266,731.959656 
	C414.222565,731.933716 415.086243,731.095764 415.960785,730.632446 
	C415.008423,730.080505 414.079834,729.107849 413.099487,729.052490 
	C409.640869,728.857300 406.164459,728.976562 402.536682,728.976562 
	C402.536682,725.799683 402.536682,723.045593 402.536682,719.667786 
	C405.695374,719.667786 408.660187,719.835571 411.588928,719.583862 
	C412.734924,719.485352 413.799988,718.445190 414.901917,717.833862 
	C413.855591,717.333374 412.832489,716.470276 411.758453,716.401428 
	C408.697937,716.205200 405.616730,716.332520 402.496063,716.332520 
	C402.496063,712.835999 402.496063,710.201477 402.496063,707.071411 
	C406.299316,707.071411 409.936462,707.144592 413.566071,707.012024 
	C414.327759,706.984192 415.061829,706.199341 415.808624,705.763306 
	C415.041229,705.178101 414.289764,704.112488 413.503845,704.086426 
	C408.740356,703.928467 403.969025,704.007690 398.867645,704.007690 
	C398.867645,711.520752 398.867645,718.476868 398.867645,726.412048 
M522.905334,722.464966 
	C522.905457,724.455566 522.728455,726.468079 522.970642,728.428772 
	C523.121216,729.647461 523.906738,730.787720 524.407227,731.963196 
	C525.018982,730.724182 526.128601,729.497681 526.159912,728.244202 
	C526.332764,721.325684 526.242615,714.400513 526.242615,707.272949 
	C529.490295,707.111084 532.221313,706.975037 535.651611,706.804077 
	C534.791748,705.490967 534.343506,704.182129 533.865723,704.171265 
	C527.732422,704.031677 521.594177,704.042908 515.459473,704.146729 
	C514.998596,704.154480 514.554504,705.159363 514.102661,705.700806 
	C514.658081,706.146423 515.190430,706.937439 515.773132,706.976440 
	C518.022827,707.127075 520.288635,707.037537 522.905334,707.037537 
	C522.905334,712.248047 522.905334,716.863281 522.905334,722.464966 
M671.540710,722.984253 
	C671.556519,721.722229 672.040771,719.621277 671.515686,719.328064 
	C666.350464,716.444214 661.017517,713.860962 654.603577,710.622498 
	C656.587952,718.317261 664.301086,716.906006 667.303284,721.254883 
	C663.880615,724.937744 656.907532,724.250244 654.961365,729.750488 
	C655.257263,730.152405 655.553162,730.554382 655.849060,730.956360 
	C660.857849,728.401367 665.866577,725.846436 671.540710,722.984253 
M338.771362,723.761169 
	C337.305939,722.943054 335.840515,722.125000 334.430542,721.337891 
	C337.947662,717.097595 345.068298,718.090271 346.300079,711.868164 
	C340.869232,713.864075 335.842194,716.381592 330.846710,718.960205 
	C328.315247,720.266968 328.052795,721.767700 330.773987,723.168518 
	C335.887543,725.800903 341.030975,728.375122 346.677795,731.234741 
	C346.997559,725.321655 341.754608,726.243164 338.771362,723.761169 
z"/>
<path fill="#FBFBFB" opacity="1.000000" stroke="none" 
	d="
M93.996460,617.294678 
	C90.672958,621.768799 81.188118,620.977783 79.207481,616.427734 
	C71.914902,599.674988 64.648743,582.910767 57.361286,566.155762 
	C56.732834,564.710876 56.020817,563.302368 54.472031,562.047913 
	C54.472031,581.229065 54.472031,600.410217 54.472031,619.796753 
	C48.873154,619.796753 43.786060,619.796753 38.434608,619.796753 
	C38.434608,586.738037 38.434608,553.819519 38.434608,520.186157 
	C42.678638,520.186157 46.964989,519.903442 51.168701,520.368225 
	C52.342270,520.497986 53.601425,522.688416 54.264034,524.180908 
	C64.576370,547.409119 74.796127,570.678528 85.041832,593.936340 
	C85.501579,594.979980 86.004509,596.004700 86.778267,597.660950 
	C87.652504,595.984070 88.381905,594.765686 88.946442,593.475220 
	C98.933090,570.647949 108.998093,547.853821 118.768486,524.934143 
	C120.303108,521.334167 121.905670,519.514282 125.985931,520.086487 
	C128.757538,520.475159 131.627731,520.160767 134.828659,520.160767 
	C134.828659,553.379089 134.828659,586.424377 134.828659,619.739136 
	C129.892105,619.739136 124.817368,619.739136 119.233261,619.739136 
	C119.233261,600.256470 119.233261,580.739746 119.233261,561.223022 
	C118.867592,561.138367 118.501915,561.053711 118.136246,560.969055 
	C110.130577,579.615967 102.124908,598.262817 93.996460,617.294678 
z"/>
<path fill="#FCFCFC" opacity="1.000000" stroke="none" 
	d="
M542.998657,620.006104 
	C530.365112,620.006104 518.231201,620.006104 505.950989,620.006104 
	C505.950989,586.674011 505.950989,553.706360 505.950989,520.162598 
	C509.509674,520.162598 512.938232,520.109558 516.364685,520.171875 
	C530.515015,520.429138 544.744690,519.879456 558.794067,521.215454 
	C576.037598,522.855225 585.646729,536.613403 581.969116,552.398438 
	C580.172241,560.111145 575.022461,565.054321 567.828735,568.345093 
	C583.076660,575.590881 588.963867,587.885559 583.717712,602.154053 
	C579.044678,614.863831 568.206055,618.698608 555.990967,619.843018 
	C551.857910,620.230225 547.664185,619.970276 542.998657,620.006104 
M523.467407,590.510742 
	C523.467407,595.611511 523.467407,600.712219 523.467407,605.220947 
	C534.897583,605.220947 545.735107,605.838623 556.462402,605.017273 
	C564.436340,604.406616 567.979614,599.209412 567.947388,591.336731 
	C567.915405,583.510986 564.182495,577.917725 556.587708,577.359802 
	C545.731995,576.562317 534.774109,577.156738 523.467468,577.156738 
	C523.467468,581.258606 523.467468,585.389832 523.467407,590.510742 
M556.943237,560.805115 
	C563.847168,557.345642 565.974121,553.521118 565.164551,546.022766 
	C564.563049,540.451538 561.110596,535.808228 554.988098,535.377075 
	C544.652039,534.649048 534.227356,535.177307 523.688782,535.177307 
	C523.688782,543.892456 523.688782,552.825134 523.688782,562.723389 
	C534.688232,562.143250 545.424866,561.577026 556.943237,560.805115 
z"/>
<path fill="#FBFBFB" opacity="1.000000" stroke="none" 
	d="
M323.005432,350.044067 
	C327.145660,348.901093 331.332764,347.899536 335.404694,346.550385 
	C337.209778,345.952332 339.696869,345.050201 340.324219,343.610565 
	C351.684235,317.542511 372.215088,300.879272 397.024750,289.072418 
	C406.685852,284.474762 417.338654,281.952454 427.566254,278.564880 
	C428.799225,278.156494 430.196716,278.152802 431.521118,278.127594 
	C439.068909,277.983887 442.050262,281.536285 438.278717,287.963776 
	C432.761414,297.366302 426.563080,306.573486 419.402191,314.769318 
	C397.469788,339.871521 371.348724,359.260315 339.498749,370.225250 
	C337.365845,370.959564 335.198730,371.594391 331.833252,372.659973 
	C333.840851,364.322113 335.572693,357.129639 337.459503,349.293579 
	C333.241974,349.882324 329.130188,350.456329 324.348999,350.937439 
	C323.454865,350.577698 323.230133,350.310883 323.005432,350.044067 
z"/>
<path fill="#F2F2F2" opacity="1.000000" stroke="none" 
	d="
M322.645386,349.911682 
	C323.230133,350.310883 323.454865,350.577698 323.918793,350.959351 
	C320.086395,353.160339 316.014740,355.246521 311.999817,357.303589 
	C321.393433,370.617859 320.880280,378.018982 309.249329,387.943970 
	C310.394623,388.706268 311.376862,389.562103 312.512329,390.085510 
	C329.180756,397.768890 346.176147,398.798004 363.449524,392.310028 
	C369.097260,390.188751 369.533569,389.143372 368.370819,382.425262 
	C360.955658,382.425262 353.438232,382.425262 344.868835,382.425262 
	C355.709320,370.292755 367.272980,360.909515 380.711639,354.048645 
	C397.272400,345.593964 414.842407,340.060608 433.307739,337.643311 
	C436.897186,337.173370 440.664368,337.150330 444.238800,337.675293 
	C450.729279,338.628479 451.941711,341.983795 448.163757,347.388275 
	C447.686920,348.070374 447.154999,348.713989 446.199402,349.741119 
	C444.914276,350.971954 444.078339,351.837067 443.242432,352.702209 
	C437.942841,356.138000 432.643219,359.573761 426.742493,363.258942 
	C426.150726,364.014313 426.077362,364.944733 426.181274,364.964966 
	C430.191376,365.746033 434.217682,366.443939 438.241852,367.152802 
	C445.073120,370.568207 451.904419,373.983582 459.210754,377.816162 
	C461.211060,379.187500 462.736237,380.141663 464.261444,381.095825 
	C471.774902,386.544434 479.027649,392.407837 486.868103,397.336273 
	C496.575806,403.438507 507.672516,404.805176 519.029968,404.999146 
	C519.588806,403.611023 519.969788,402.343750 520.582581,401.200745 
	C522.709106,397.234253 527.238525,395.121765 531.563049,396.205261 
	C535.796265,397.265808 538.691528,399.832001 539.220825,404.354523 
	C539.773315,409.075195 537.630188,412.509644 533.327698,414.257660 
	C528.891907,416.059814 524.482544,415.375000 521.730896,411.340851 
	C519.874329,408.618835 517.888306,407.888733 514.870239,407.781281 
	C497.722198,407.170746 483.011566,400.496246 469.986450,389.573090 
	C466.305359,386.486053 462.225372,383.874664 457.874695,380.638458 
	C455.471222,379.151184 453.521423,378.070587 451.360046,376.678467 
	C435.006256,366.939575 418.687531,364.159149 401.655212,375.048218 
	C399.760590,375.469238 398.216064,375.903564 396.278870,376.258179 
	C393.589691,377.789124 391.293213,379.399780 388.996704,381.010406 
	C388.138733,381.187866 387.280731,381.365326 385.733337,381.356232 
	C384.371826,381.416595 383.699768,381.663513 383.027679,381.910400 
	C380.749054,382.363312 378.488312,383.004639 376.187439,383.223419 
	C373.006409,383.525848 371.370850,384.921722 371.247620,388.710083 
	C370.544434,389.885101 370.333405,390.588257 370.122345,391.291443 
	C368.843323,392.263885 367.564301,393.236359 365.570129,394.171387 
	C362.225739,395.143127 359.596558,396.152344 356.967377,397.161560 
	C356.520081,397.355103 356.072815,397.548615 355.078857,397.506348 
	C353.676788,397.569763 352.821350,397.868958 351.965912,398.168121 
	C351.198669,398.370361 350.431427,398.572601 348.937866,398.473907 
	C343.179138,398.318298 338.146729,398.463654 333.114319,398.608978 
	C332.324280,398.593781 331.534241,398.578583 330.285400,398.132568 
	C328.914062,397.698792 328.001526,397.695831 327.088989,397.692871 
	C326.609222,397.682404 326.129425,397.671967 325.189270,397.167450 
	C321.597565,395.870300 318.466248,395.067230 315.334930,394.264160 
	C309.379303,390.979401 303.124817,389.968506 296.235718,389.728302 
	C290.010254,389.511230 283.705170,387.009186 277.751007,384.700317 
	C269.719788,381.585999 266.008698,373.233643 267.998749,364.542999 
	C269.704041,357.095947 276.197235,352.029266 284.674805,352.384888 
	C291.200134,352.658569 297.745300,354.732513 304.176270,354.328613 
	C310.283783,353.945038 316.254456,351.383301 322.645386,349.911682 
M305.273285,358.981293 
	C303.574860,358.965149 301.820221,358.665741 300.189178,358.989288 
	C296.282471,359.764191 291.612885,359.771057 288.731384,362.000732 
	C282.582336,366.758850 283.166809,372.723480 288.233917,379.047791 
	C291.780792,383.474640 296.098419,385.565125 301.435272,385.343567 
	C307.504974,385.091614 312.626648,380.488800 313.909271,374.871399 
	C315.319092,368.696930 312.596802,363.265991 305.273285,358.981293 
M284.369690,356.249908 
	C275.834564,357.330994 271.736420,361.376434 271.679779,368.776581 
	C271.625793,375.827637 275.348145,380.310913 282.437836,381.437744 
	C278.542572,372.767609 279.126190,364.894958 286.218994,358.111816 
	C286.341217,357.994934 285.520325,356.891876 284.369690,356.249908 
z"/>
<path fill="#F9F9F9" opacity="1.000000" stroke="none" 
	d="
M712.165649,549.142700 
	C716.116211,549.142700 719.596558,549.142700 723.439087,549.142700 
	C723.439087,572.762695 723.439087,596.119324 723.439087,619.744385 
	C717.871216,619.744385 712.313232,619.744385 706.251770,619.744385 
	C706.251770,616.713745 706.251770,613.841309 706.251770,609.660583 
	C699.021606,618.972534 690.285889,621.834656 680.116455,620.990723 
	C672.280823,620.340576 665.649597,617.087280 660.650513,611.070984 
	C652.679565,601.478210 650.915588,590.081238 652.569519,578.178406 
	C653.264160,573.179688 654.847534,568.072083 657.119507,563.564697 
	C667.475464,543.019043 694.787170,542.961670 705.952332,558.682617 
	C706.154480,555.277710 706.312073,552.622498 706.518677,549.142700 
	C708.218994,549.142700 709.957275,549.142700 712.165649,549.142700 
M669.907837,582.694153 
	C670.257812,586.478455 670.171936,590.366821 671.045105,594.026245 
	C673.095947,602.620178 679.195007,607.162048 687.947571,607.223572 
	C696.784851,607.285706 703.313354,603.046204 704.841980,594.250671 
	C706.002319,587.574036 706.121216,580.260376 704.656616,573.686218 
	C702.220886,562.752686 690.063538,557.906860 680.080811,563.040955 
	C672.552124,566.912964 670.523682,574.017456 669.907837,582.694153 
z"/>
<path fill="#FBFBFB" opacity="1.000000" stroke="none" 
	d="
M384.888184,556.905884 
	C398.240631,543.959961 413.962738,544.231567 429.312866,557.857544 
	C429.556000,554.797363 429.768646,552.121277 429.988190,549.358276 
	C435.614014,549.358276 441.039490,549.358276 446.713989,549.358276 
	C446.713989,572.813293 446.713989,596.059814 446.713989,619.657227 
	C441.281555,619.657227 435.711578,619.657227 429.737183,619.657227 
	C429.737183,616.838501 429.737183,613.891235 429.737183,610.950500 
	C429.019745,610.950500 428.532440,610.813721 428.405212,610.970032 
	C420.245117,620.996033 409.550903,623.035583 397.782410,619.880432 
	C385.384064,616.556335 378.836182,607.289490 376.416809,595.285767 
	C373.647827,581.547485 375.303375,568.445007 384.888184,556.905884 
M414.109070,607.112488 
	C421.406555,606.311951 426.536224,602.110718 427.800629,595.267883 
	C429.034729,588.588684 429.298004,581.377686 428.179596,574.703003 
	C426.689484,565.810120 420.126038,561.290710 411.564697,561.187134 
	C403.218170,561.085999 396.562195,565.761108 394.564240,574.424683 
	C393.360504,579.644531 392.963562,585.350830 393.659454,590.647339 
	C395.217010,602.502747 401.322052,607.249084 414.109070,607.112488 
z"/>
<path fill="#FCFCFC" opacity="1.000000" stroke="none" 
	d="
M895.686157,599.211914 
	C892.739441,588.258423 892.800659,577.808960 896.694824,567.450867 
	C905.506104,544.013611 934.770996,541.206909 947.763550,558.890320 
	C947.763550,555.464905 947.763550,552.588623 947.763550,549.431213 
	C953.600952,549.431213 959.022522,549.431213 964.794800,549.431213 
	C964.794800,572.790100 964.794800,596.166138 964.794800,619.774780 
	C959.381042,619.774780 953.952087,619.774780 948.163452,619.774780 
	C948.163452,616.721619 948.163452,613.640808 948.163452,609.249451 
	C939.096069,620.767761 927.984619,623.248474 915.559570,619.776978 
	C905.324158,616.917297 899.132568,609.515015 895.686157,599.211914 
M911.532471,588.856506 
	C911.792542,590.496704 911.916626,592.172485 912.335327,593.771118 
	C914.595276,602.399353 920.492859,607.082458 929.159180,607.230530 
	C938.070801,607.382874 943.989197,603.181519 946.514465,594.557861 
	C948.671143,587.192932 948.558289,579.757568 945.974915,572.505615 
	C943.394287,565.261230 937.738525,561.278320 930.018860,561.222168 
	C922.516541,561.167542 916.402283,564.216858 914.001770,571.482849 
	C912.276306,576.705688 912.210205,582.476685 911.532471,588.856506 
z"/>
<path fill="#FBFBFB" opacity="1.000000" stroke="none" 
	d="
M196.727051,548.191162 
	C213.722717,552.938538 222.571213,563.745178 223.808868,580.835938 
	C225.049393,597.966187 217.585571,612.091431 204.165390,618.011169 
	C188.584396,624.884033 169.022781,620.720276 159.516678,608.507629 
	C149.523132,595.668701 149.359451,573.077759 159.362427,560.306335 
	C167.365921,550.087708 178.405518,546.955139 190.852982,547.513855 
	C192.678955,547.595764 194.494476,547.910706 196.727051,548.191162 
M170.541321,576.409058 
	C170.714264,582.504395 170.119019,588.745972 171.244415,594.660034 
	C172.838379,603.036438 179.184128,607.232727 187.980576,607.230774 
	C196.819794,607.228821 203.183685,603.090881 204.763443,594.718811 
	C205.908554,588.650146 206.127625,582.107361 205.197479,576.014465 
	C203.689407,566.135864 197.298325,561.136169 188.224670,561.066040 
	C179.021271,560.994812 173.335785,565.724854 170.541321,576.409058 
z"/>
<path fill="#FAFAFA" opacity="1.000000" stroke="none" 
	d="
M792.160706,619.981323 
	C791.395691,618.408630 790.886475,616.861572 790.877625,615.311707 
	C790.810425,603.479370 790.841614,591.646545 790.839294,579.813843 
	C790.839111,578.647339 790.856689,577.479187 790.803467,576.314636 
	C790.377869,567.010437 787.324524,562.753540 780.334534,561.687805 
	C771.630066,560.360535 763.774414,564.654480 761.206970,572.498413 
	C760.344910,575.132202 760.041809,578.047546 760.015503,580.839233 
	C759.894714,593.660767 759.962280,606.484070 759.962280,619.657837 
	C754.266479,619.657837 748.689270,619.657837 742.311035,619.657837 
	C742.311035,596.442993 742.311035,573.065857 742.311035,549.415283 
	C747.051270,549.415283 752.299316,549.415283 757.699341,549.415283 
	C758.169678,552.821716 758.621887,556.096863 759.183411,560.163635 
	C764.807312,552.157043 772.122803,548.083862 781.416382,547.448914 
	C796.148071,546.442505 806.965332,554.538391 807.728210,569.179443 
	C808.601440,585.938599 807.930542,602.778259 807.930542,620.005615 
	C802.891724,620.005615 797.769958,620.005615 792.160706,619.981323 
z"/>
<path fill="#FAFAFA" opacity="1.000000" stroke="none" 
	d="
M284.521210,583.369385 
	C296.390198,589.289490 297.622314,608.053040 285.216431,616.085632 
	C272.422638,624.369446 245.791763,622.336487 234.277573,611.761292 
	C235.759613,608.022522 237.275177,604.199219 238.976700,599.906738 
	C247.056808,605.276794 255.619095,608.377930 265.168182,608.098999 
	C266.167114,608.069885 267.180328,608.135132 268.162415,607.990295 
	C272.566742,607.340698 276.933411,606.428833 277.939697,601.115967 
	C278.700195,597.100769 276.171570,594.411682 269.930298,592.627625 
	C262.750427,590.575317 255.222519,589.460815 248.341629,586.702148 
	C235.108276,581.396851 232.382065,564.842529 242.706726,555.165039 
	C244.030334,553.924316 245.550400,552.843262 247.115067,551.917419 
	C259.838104,544.388916 280.816223,546.509766 292.397278,556.694641 
	C290.843536,560.333313 289.235016,564.100281 288.081329,566.802063 
	C280.670532,564.690918 273.690399,562.317871 266.524750,560.850281 
	C263.656433,560.262817 259.991882,560.967224 257.411499,562.391357 
	C255.350647,563.528748 253.237671,566.658630 253.258453,568.884460 
	C253.278580,571.041809 255.541443,574.190186 257.613739,575.106079 
	C261.955933,577.025391 266.849243,577.664429 271.461426,579.016235 
	C275.748840,580.272705 279.965027,581.772034 284.521210,583.369385 
z"/>
<path fill="#FAFAFA" opacity="1.000000" stroke="none" 
	d="
M831.094238,560.106689 
	C844.197388,544.088074 868.122559,545.103333 881.546570,553.052002 
	C885.036926,555.118774 886.130554,557.301575 884.011353,561.013550 
	C882.713257,563.287231 881.948914,565.865723 880.805542,568.646240 
	C873.171265,563.183228 865.081970,559.744324 855.983276,562.160461 
	C852.363953,563.121460 848.533936,565.408081 846.072510,568.209351 
	C839.003174,576.254700 839.742737,594.097595 846.700134,601.732178 
	C852.537903,608.138062 866.523254,610.632507 880.780090,599.929260 
	C882.188782,603.357666 883.845642,606.626831 884.782471,610.090759 
	C885.103882,611.279175 884.021973,613.479004 882.905457,614.326416 
	C871.999084,622.603333 851.258667,623.429504 839.267944,616.265015 
	C827.089661,608.988464 820.508057,594.318481 823.576904,578.631287 
	C824.812439,572.315491 828.370544,566.454041 831.094238,560.106689 
z"/>
<path fill="#FAFAFA" opacity="1.000000" stroke="none" 
	d="
M341.022583,621.103027 
	C320.087616,620.478699 307.294067,609.112976 305.202911,589.706482 
	C303.011414,569.368896 313.576569,552.808960 331.877869,548.573792 
	C343.153168,545.964539 354.018555,547.461121 364.121674,553.468445 
	C366.985474,555.171204 368.128571,556.984314 366.257294,560.273682 
	C364.803711,562.828613 363.976471,565.739990 362.847412,568.551331 
	C348.156219,559.382874 335.182922,559.209412 328.076141,567.888306 
	C321.329376,576.127563 321.593201,593.899902 328.575897,601.554565 
	C335.926575,609.612610 349.165192,609.098694 362.776062,599.937683 
	C364.216949,603.472107 365.907867,606.840332 366.857574,610.405945 
	C367.157623,611.532471 365.828308,613.702698 364.641937,614.514954 
	C357.703156,619.266113 349.835632,621.081055 341.022583,621.103027 
z"/>
<path fill="#FCFCFC" opacity="1.000000" stroke="none" 
	d="
M603.235107,549.149963 
	C607.699280,549.149719 611.689270,549.149719 616.141846,549.149719 
	C616.643127,552.634155 617.126221,555.991699 617.525085,558.764038 
	C621.655151,555.580444 625.336914,551.446716 629.939941,549.556824 
	C634.590210,547.647461 640.153564,547.961975 645.770386,547.244263 
	C645.770386,553.662109 645.770386,558.756287 645.770386,564.139038 
	C642.895569,563.746460 640.039795,563.088867 637.168396,563.011902 
	C626.200867,562.718201 619.251221,568.570862 618.724304,579.516479 
	C618.148376,591.479797 618.488281,603.487244 618.430847,615.475464 
	C618.424500,616.792358 618.429993,618.109253 618.429993,619.708862 
	C612.590271,619.708862 607.041260,619.708862 600.996338,619.708862 
	C600.996338,614.439819 601.063293,609.164551 600.984070,603.891479 
	C600.726440,586.749634 600.443848,569.608032 600.087646,552.468079 
	C600.044800,550.406799 599.956726,548.725769 603.235107,549.149963 
z"/>
<path fill="#B2E506" opacity="1.000000" stroke="none" 
	d="
M438.765564,367.145813 
	C434.217682,366.443939 430.191376,365.746033 426.181274,364.964966 
	C426.077362,364.944733 426.150726,364.014313 426.350586,363.448792 
	C428.505798,363.675537 430.452759,364.217316 432.397644,364.209930 
	C462.709564,364.094666 493.021149,363.866089 523.332947,363.840027 
	C525.216553,363.838409 527.541565,364.840302 528.912109,366.155731 
	C536.120544,373.074249 542.982239,380.354950 550.221497,387.239471 
	C551.814209,388.754120 554.447998,389.971191 556.606201,389.977234 
	C609.908936,390.126587 663.212036,390.078308 716.515076,390.142853 
	C719.085266,390.145966 720.603210,389.629333 721.839905,387.067871 
	C723.788513,383.032104 728.786011,381.160645 732.862610,382.261963 
	C737.108826,383.409119 740.061340,387.332764 740.104858,391.886078 
	C740.148987,396.501404 737.361389,400.371979 733.074646,401.647491 
	C728.901672,402.889160 723.939087,401.263367 722.031372,397.045258 
	C720.497681,393.654358 718.234070,393.610413 715.339905,393.612183 
	C663.036255,393.644196 610.732422,393.568085 558.429382,393.745667 
	C553.503967,393.762390 550.046082,392.375977 546.746399,388.781708 
	C540.668518,382.161224 534.220947,375.869415 527.725708,369.651306 
	C526.338684,368.323395 524.094604,367.168579 522.239685,367.159973 
	C494.590088,367.031647 466.939606,367.109558 438.765564,367.145813 
z"/>
<path fill="#E6E7E1" opacity="1.000000" stroke="none" 
	d="
M389.339081,381.093231 
	C391.293213,379.399780 393.589691,377.789124 396.562195,376.432159 
	C398.829620,376.737762 400.421051,376.789703 402.476471,376.907318 
	C409.999268,377.093201 417.058044,377.213409 424.396729,377.537079 
	C428.540558,378.862518 432.404572,379.984497 436.268555,381.106476 
	C440.876984,384.049927 445.372986,387.190002 450.114441,389.900787 
	C465.748138,398.838806 473.199097,413.229584 477.351410,429.953308 
	C479.928802,440.333832 485.266754,448.647491 493.031769,455.006012 
	C495.673676,454.242737 498.130768,453.077332 500.658600,452.895386 
	C506.262817,452.492065 510.823029,456.842255 510.901001,462.158661 
	C510.977753,467.392273 506.357300,471.915405 500.925262,471.924255 
	C495.465637,471.933136 490.555054,467.531677 491.101685,462.223236 
	C491.459442,458.748627 490.218567,456.731873 488.040131,454.485077 
	C481.085541,447.312317 475.981384,439.118622 474.010864,429.090790 
	C469.443268,405.846985 453.310059,392.481842 433.082001,383.620300 
	C426.532227,380.750946 418.511169,380.800232 411.116882,380.424438 
	C404.002869,380.062866 396.829010,380.877991 389.339081,381.093231 
z"/>
<path fill="#C5FE06" opacity="1.000000" stroke="none" 
	d="
M523.002930,353.001923 
	C517.193970,353.001923 511.884430,353.001923 506.574890,353.001923 
	C506.449310,352.438629 506.323761,351.875305 506.198181,351.312012 
	C507.977051,350.818542 509.754578,349.900482 511.534943,349.895020 
	C540.684082,349.805664 569.833557,349.831543 598.982971,349.831512 
	C621.463745,349.831512 643.944519,349.831482 666.322754,349.831482 
	C669.944519,342.955566 673.806152,340.638184 679.229248,341.953674 
	C683.318359,342.945587 686.530396,347.184784 686.525940,351.583893 
	C686.521790,355.684662 683.293518,360.036743 679.555115,360.981506 
	C673.837769,362.426361 670.161316,360.241425 666.315674,353.001923 
	C618.768982,353.001923 571.135620,353.001923 523.002930,353.001923 
z"/>
<path fill="#BCF206" opacity="1.000000" stroke="none" 
	d="
M532.000000,322.129395 
	C540.658264,322.129364 548.816895,322.082428 556.974487,322.157867 
	C559.424011,322.180511 561.129211,321.971680 562.411682,319.198395 
	C564.470337,314.746613 569.231506,312.982208 573.774597,314.114014 
	C577.742615,315.102509 581.234253,319.623871 580.957825,323.853119 
	C580.658142,328.436951 578.266174,331.681976 573.789490,333.021667 
	C569.319458,334.359344 565.073059,332.244659 562.218384,328.216522 
	C561.211121,326.795166 559.057373,325.377136 557.404236,325.349976 
	C543.588928,325.123169 529.766479,325.338837 515.950500,325.134003 
	C512.725159,325.086182 511.698456,326.359039 510.934204,329.164673 
	C508.271759,338.938721 505.417267,348.661957 502.492920,358.361420 
	C502.068695,359.768555 500.865082,360.940735 500.022156,362.221649 
	C499.465759,361.912292 498.909363,361.602936 498.352997,361.293579 
	C501.116272,351.786957 503.865479,342.276215 506.646545,332.774811 
	C509.763580,322.125702 509.776093,322.129364 521.010803,322.129364 
	C524.507202,322.129364 528.003601,322.129364 532.000000,322.129395 
z"/>
<path fill="#B2E506" opacity="1.000000" stroke="none" 
	d="
M636.015747,709.137268 
	C636.083435,707.198975 636.151123,705.732483 636.218811,704.266052 
	C636.692688,704.028870 637.166565,703.791687 637.640442,703.554504 
	C638.348938,704.661987 639.643799,705.755310 639.671082,706.879333 
	C639.853088,714.371399 639.853821,721.872375 639.659912,729.363892 
	C639.633118,730.400024 638.208679,731.400085 637.431335,732.416809 
	C636.954773,732.140747 636.478271,731.864624 636.001709,731.588501 
	C636.001709,727.816711 636.001709,724.044861 636.001709,719.999451 
	C631.039917,719.999451 626.479980,719.999451 621.515015,719.999451 
	C621.515015,724.015076 621.515015,727.788879 621.515015,731.562683 
	C621.012085,731.841797 620.509094,732.120911 620.006165,732.400024 
	C619.276672,731.406006 617.934875,730.424500 617.914185,729.415894 
	C617.743347,721.101929 617.817566,712.782959 617.817566,704.474426 
	C620.493164,704.381409 620.493164,704.381409 621.725769,715.935120 
	C626.257629,715.935120 630.839417,715.935120 636.015808,715.935120 
	C636.015808,713.831970 636.015808,711.720581 636.015747,709.137268 
z"/>
<path fill="#B2E506" opacity="1.000000" stroke="none" 
	d="
M364.277832,732.035095 
	C363.263031,731.184448 362.250916,730.352844 362.238708,729.506836 
	C362.119293,721.239868 362.166779,712.970520 362.166779,704.361694 
	C366.692841,704.361694 371.016266,703.772095 375.106842,704.496887 
	C381.594360,705.646240 384.868103,711.521240 384.300598,719.472290 
	C383.782410,726.732483 379.774353,731.337769 373.196869,731.937500 
	C370.399353,732.192566 367.563141,732.023682 364.277832,732.035095 
M372.777161,707.253296 
	C370.660614,707.253296 368.544037,707.253296 366.209534,707.253296 
	C366.209534,714.564697 366.209534,721.613037 366.209534,728.636169 
	C375.341156,729.429382 379.052307,727.495667 380.574341,721.319275 
	C382.174103,714.827576 379.604370,709.707397 372.777161,707.253296 
z"/>
<path fill="#BCF206" opacity="1.000000" stroke="none" 
	d="
M595.913574,707.751709 
	C589.646179,706.434448 586.001099,708.119934 584.236572,712.816467 
	C582.222595,718.176941 583.916748,725.297485 587.799011,727.788330 
	C591.636414,730.250488 596.230774,729.250061 599.244080,725.451172 
	C600.084656,724.391357 601.311462,723.637878 603.068604,722.141235 
	C602.372803,729.057312 598.257751,732.503784 592.206909,732.410034 
	C585.424377,732.304993 580.560913,727.245300 580.042603,719.755249 
	C579.449036,711.175903 583.501465,704.883057 590.273682,703.867981 
	C596.918274,702.872009 601.591553,705.923767 602.441833,713.350220 
	C600.384705,711.540649 598.327637,709.731079 595.913574,707.751709 
z"/>
<path fill="#B2E506" opacity="1.000000" stroke="none" 
	d="
M558.001465,728.949097 
	C561.052368,729.541321 563.630371,730.133545 566.208313,730.725769 
	C563.645447,731.167480 561.097412,731.804993 558.515869,731.999268 
	C555.559875,732.221863 552.574219,732.050903 549.304382,732.050903 
	C549.304382,722.674561 549.304382,713.617554 549.304382,703.979309 
	C554.130798,703.979309 558.906250,703.901245 563.674072,704.056458 
	C564.464722,704.082214 565.222229,705.126587 565.995056,705.700195 
	C565.119507,706.168823 564.261658,706.997314 563.365234,707.041382 
	C560.066223,707.203674 556.754333,707.105835 553.090942,707.105835 
	C553.090942,710.131104 553.090942,712.851379 553.090942,716.283325 
	C555.324463,716.283325 557.618408,716.047424 559.836121,716.357178 
	C561.642517,716.609619 563.357727,717.515076 565.113342,718.130981 
	C563.436951,718.659546 561.791321,719.450256 560.076477,719.651733 
	C557.824707,719.916321 555.518494,719.716675 552.987732,719.716675 
	C552.987732,722.987122 552.987732,725.724915 552.987732,728.734497 
	C554.606750,728.810974 556.067688,728.880066 558.001465,728.949097 
z"/>
<path fill="#BCF206" opacity="1.000000" stroke="none" 
	d="
M463.531921,704.157776 
	C467.133057,704.039612 470.309631,703.868286 473.458130,704.092224 
	C478.381561,704.442383 481.490967,707.760742 481.672668,712.493713 
	C481.863373,717.462341 478.825165,721.206970 473.822113,721.785522 
	C471.401947,722.065430 468.922668,721.833862 466.071869,721.833862 
	C466.071869,725.458923 466.071869,728.559875 466.071869,733.088562 
	C464.279419,731.585144 462.667297,730.861023 462.667572,730.137573 
	C462.670959,721.518982 462.914337,712.900391 463.531921,704.157776 
M473.740875,707.263184 
	C471.312195,707.263184 468.883545,707.263184 466.384949,707.263184 
	C466.384949,711.221130 466.384949,714.911072 466.384949,718.774780 
	C470.675690,718.441711 475.459412,720.340576 477.619202,715.301453 
	C478.957733,712.178528 478.255890,709.055969 473.740875,707.263184 
z"/>
<path fill="#BCF206" opacity="1.000000" stroke="none" 
	d="
M445.326965,716.384399 
	C447.819427,718.389221 447.428528,719.552612 444.590668,719.636658 
	C441.305756,719.733948 438.015778,719.659363 434.532074,719.659363 
	C434.532074,723.052856 434.532074,725.807190 434.532074,728.980347 
	C438.351471,728.980347 441.995789,728.882080 445.626984,729.056885 
	C446.427704,729.095459 447.181824,730.102173 447.957397,730.663086 
	C447.239197,731.114807 446.530090,731.939880 445.801270,731.957642 
	C441.007690,732.074951 436.209839,732.018188 431.144867,732.018188 
	C431.144867,722.613708 431.144867,713.562683 431.144867,704.530823 
	C440.809265,703.014832 446.469208,703.651794 447.978241,706.883423 
	C443.509857,706.883423 439.268219,706.883423 434.670227,706.883423 
	C434.670227,710.118469 434.670227,712.851562 434.670227,716.343872 
	C438.015778,716.343872 441.453613,716.343872 445.326965,716.384399 
z"/>
<path fill="#BCF206" opacity="1.000000" stroke="none" 
	d="
M398.867645,725.922546 
	C398.867645,718.476868 398.867645,711.520752 398.867645,704.007690 
	C403.969025,704.007690 408.740356,703.928467 413.503845,704.086426 
	C414.289764,704.112488 415.041229,705.178101 415.808655,705.763306 
	C415.061829,706.199341 414.327759,706.984192 413.566071,707.012024 
	C409.936462,707.144592 406.299316,707.071411 402.496063,707.071411 
	C402.496063,710.201477 402.496063,712.835999 402.496063,716.332520 
	C405.616730,716.332520 408.697937,716.205200 411.758453,716.401428 
	C412.832489,716.470276 413.855591,717.333374 414.901917,717.833862 
	C413.799988,718.445190 412.734924,719.485352 411.588928,719.583862 
	C408.660187,719.835571 405.695374,719.667786 402.536682,719.667786 
	C402.536682,723.045593 402.536682,725.799683 402.536682,728.976562 
	C406.164459,728.976562 409.640869,728.857300 413.099487,729.052490 
	C414.079834,729.107849 415.008423,730.080505 415.960785,730.632446 
	C415.086243,731.095764 414.222565,731.933716 413.335266,731.959656 
	C408.709961,732.094360 404.078644,732.022400 398.867645,732.022400 
	C398.867645,729.939270 398.867645,728.175659 398.867645,725.922546 
z"/>
<path fill="#A5D408" opacity="1.000000" stroke="none" 
	d="
M464.778931,381.060303 
	C462.736237,380.141663 461.211060,379.187500 459.516907,377.957764 
	C469.139160,377.554382 478.933533,377.234833 488.720032,377.395050 
	C492.526398,377.457336 494.544678,376.509735 495.091827,372.540405 
	C495.292267,371.086243 496.675903,369.795166 497.519806,368.429718 
	C498.135162,368.716797 498.750519,369.003876 499.365875,369.290924 
	C498.422546,372.693024 497.734528,376.202698 496.375000,379.429413 
	C495.984711,380.355713 493.661652,380.859406 492.213318,380.884186 
	C483.242859,381.037720 474.269073,380.999420 464.778931,381.060303 
z"/>
<path fill="#C5FE06" opacity="1.000000" stroke="none" 
	d="
M522.905334,721.971741 
	C522.905334,716.863281 522.905334,712.248047 522.905334,707.037537 
	C520.288635,707.037537 518.022827,707.127075 515.773132,706.976440 
	C515.190430,706.937439 514.658081,706.146423 514.102661,705.700806 
	C514.554504,705.159363 514.998596,704.154480 515.459473,704.146729 
	C521.594177,704.042908 527.732422,704.031677 533.865723,704.171265 
	C534.343506,704.182129 534.791748,705.490967 535.651611,706.804077 
	C532.221313,706.975037 529.490295,707.111084 526.242615,707.272949 
	C526.242615,714.400513 526.332764,721.325684 526.159912,728.244202 
	C526.128601,729.497681 525.018982,730.724182 524.407227,731.963196 
	C523.906738,730.787720 523.121216,729.647461 522.970642,728.428772 
	C522.728455,726.468079 522.905457,724.455566 522.905334,721.971741 
z"/>
<path fill="#B2E506" opacity="1.000000" stroke="none" 
	d="
M671.208008,723.137817 
	C665.866577,725.846436 660.857849,728.401367 655.849060,730.956360 
	C655.553162,730.554382 655.257263,730.152405 654.961365,729.750488 
	C656.907532,724.250244 663.880615,724.937744 667.304565,721.247620 
	C664.301086,716.906006 656.587952,718.317261 654.603577,710.622498 
	C661.017517,713.860962 666.350464,716.444214 671.515686,719.328064 
	C672.040771,719.621277 671.556519,721.722229 671.208008,723.137817 
z"/>
<path fill="#C5FE06" opacity="1.000000" stroke="none" 
	d="
M454.984192,350.132202 
	C469.574402,350.132202 484.164581,350.132202 498.754791,350.132202 
	C498.938110,350.566711 499.121460,351.001221 499.304810,351.435730 
	C497.986572,351.957764 496.671814,352.922882 495.349548,352.933228 
	C482.219971,353.036041 469.089142,352.981049 455.489990,352.568512 
	C455.008942,351.488312 454.996552,350.810242 454.984192,350.132202 
z"/>
<path fill="#B2E506" opacity="1.000000" stroke="none" 
	d="
M339.125519,723.903992 
	C341.754608,726.243164 346.997559,725.321655 346.677795,731.234741 
	C341.030975,728.375122 335.887543,725.800903 330.773987,723.168518 
	C328.052795,721.767700 328.315247,720.266968 330.846710,718.960205 
	C335.842194,716.381592 340.869232,713.864075 346.300079,711.868164 
	C345.068298,718.090271 337.947662,717.097595 334.430542,721.337891 
	C335.840515,722.125000 337.305939,722.943054 339.125519,723.903992 
z"/>
<path fill="#A5D408" opacity="1.000000" stroke="none" 
	d="
M436.788391,381.076294 
	C432.404572,379.984497 428.540558,378.862518 424.841217,377.461243 
	C433.861115,377.117950 442.716370,377.053955 451.571625,376.989990 
	C453.521423,378.070587 455.471222,379.151184 457.544708,380.489746 
	C450.881683,380.847198 444.094971,380.946655 436.788391,381.076294 
z"/>
<path fill="#A5D408" opacity="1.000000" stroke="none" 
	d="
M454.660492,350.009277 
	C454.996552,350.810242 455.008942,351.488312 455.027222,352.505493 
	C451.390717,352.824982 447.748352,352.805328 443.674194,352.743896 
	C444.078339,351.837067 444.914276,350.971954 446.006592,350.051178 
	C448.954224,349.959137 451.645538,349.922760 454.660492,350.009277 
z"/>
<path fill="#E6E7E1" opacity="1.000000" stroke="none" 
	d="
M333.462952,398.796265 
	C338.146729,398.463654 343.179138,398.318298 348.542206,398.398682 
	C343.852448,398.744141 338.832001,398.863831 333.462952,398.796265 
z"/>
<path fill="#E6E7E1" opacity="1.000000" stroke="none" 
	d="
M315.592163,394.522217 
	C318.466248,395.067230 321.597565,395.870300 324.882996,396.969116 
	C321.974518,396.436707 318.911957,395.608490 315.592163,394.522217 
z"/>
<path fill="#E6E7E1" opacity="1.000000" stroke="none" 
	d="
M357.316162,397.222382 
	C359.596558,396.152344 362.225739,395.143127 365.257446,394.193787 
	C362.994934,395.263550 360.329956,396.273376 357.316162,397.222382 
z"/>
<path fill="#E6E7E1" opacity="1.000000" stroke="none" 
	d="
M327.340424,397.878479 
	C328.001526,397.695831 328.914062,397.698792 329.931824,397.944275 
	C329.221954,398.145935 328.406921,398.105042 327.340424,397.878479 
z"/>
<path fill="#E6E7E1" opacity="1.000000" stroke="none" 
	d="
M352.261169,398.269958 
	C352.821350,397.868958 353.676788,397.569763 354.709198,397.464233 
	C354.109589,397.895844 353.333038,398.133789 352.261169,398.269958 
z"/>
<path fill="#E6E7E1" opacity="1.000000" stroke="none" 
	d="
M383.254181,382.001282 
	C383.699768,381.663513 384.371826,381.416595 385.410034,381.285431 
	C385.010986,381.631531 384.245819,381.861847 383.254181,382.001282 
z"/>
<path fill="#E6E7E1" opacity="1.000000" stroke="none" 
	d="
M370.380798,391.170837 
	C370.333405,390.588257 370.544434,389.885101 371.026489,389.072479 
	C371.078064,389.658752 370.858673,390.354492 370.380798,391.170837 
z"/>
<path fill="#040404" opacity="1.000000" stroke="none" 
	d="
M523.467407,590.015869 
	C523.467468,585.389832 523.467468,581.258606 523.467468,577.156738 
	C534.774109,577.156738 545.731995,576.562317 556.587708,577.359802 
	C564.182495,577.917725 567.915405,583.510986 567.947388,591.336731 
	C567.979614,599.209412 564.436340,604.406616 556.462402,605.017273 
	C545.735107,605.838623 534.897583,605.220947 523.467407,605.220947 
	C523.467407,600.712219 523.467407,595.611511 523.467407,590.015869 
z"/>
<path fill="#070707" opacity="1.000000" stroke="none" 
	d="
M556.552368,560.907959 
	C545.424866,561.577026 534.688232,562.143250 523.688782,562.723389 
	C523.688782,552.825134 523.688782,543.892456 523.688782,535.177307 
	C534.227356,535.177307 544.652039,534.649048 554.988098,535.377075 
	C561.110596,535.808228 564.563049,540.451538 565.164551,546.022766 
	C565.974121,553.521118 563.847168,557.345642 556.552368,560.907959 
z"/>
<path fill="#141414" opacity="1.000000" stroke="none" 
	d="
M305.648926,359.061401 
	C312.596802,363.265991 315.319092,368.696930 313.909271,374.871399 
	C312.626648,380.488800 307.504974,385.091614 301.435272,385.343567 
	C296.098419,385.565125 291.780792,383.474640 288.233917,379.047791 
	C283.166809,372.723480 282.582336,366.758850 288.731384,362.000732 
	C291.612885,359.771057 296.282471,359.764191 300.189178,358.989288 
	C301.820221,358.665741 303.574860,358.965149 305.648926,359.061401 
M306.937836,379.043549 
	C311.535400,379.549438 307.744720,374.626495 310.317291,373.821838 
	C308.213013,372.316315 311.305023,367.234467 306.307312,366.938049 
	C306.264160,366.458679 306.386780,365.671814 306.153046,365.545807 
	C302.316315,363.476807 296.123383,364.165802 293.149933,368.260193 
	C291.037170,371.169495 291.109619,375.429565 293.997253,379.030365 
	C294.337646,379.018677 294.678070,379.006989 295.248413,379.714569 
	C296.542358,383.144257 299.696259,381.823730 302.107361,382.400208 
	C302.288940,379.862885 307.938660,384.148041 306.937836,379.043549 
z"/>
<path fill="#070707" opacity="1.000000" stroke="none" 
	d="
M451.360046,376.678467 
	C442.716370,377.053955 433.861115,377.117950 424.561340,377.257782 
	C417.058044,377.213409 409.999268,377.093201 402.488159,376.610687 
	C402.025665,375.852753 402.015503,375.457153 402.005310,375.061523 
	C418.687531,364.159149 435.006256,366.939575 451.360046,376.678467 
z"/>
<path fill="#141414" opacity="1.000000" stroke="none" 
	d="
M284.754608,356.249451 
	C285.520325,356.891876 286.341217,357.994934 286.218994,358.111816 
	C279.126190,364.894958 278.542572,372.767609 282.437836,381.437744 
	C275.348145,380.310913 271.625793,375.827637 271.679779,368.776581 
	C271.736420,361.376434 275.834564,357.330994 284.754608,356.249451 
z"/>
<path fill="#141414" opacity="1.000000" stroke="none" 
	d="
M401.655212,375.048218 
	C402.015503,375.457153 402.025665,375.852753 402.024170,376.545013 
	C400.421051,376.789703 398.829620,376.737762 396.954895,376.511841 
	C398.216064,375.903564 399.760590,375.469238 401.655212,375.048218 
z"/>
<path fill="#030303" opacity="1.000000" stroke="none" 
	d="
M669.922363,582.237061 
	C670.523682,574.017456 672.552124,566.912964 680.080811,563.040955 
	C690.063538,557.906860 702.220886,562.752686 704.656616,573.686218 
	C706.121216,580.260376 706.002319,587.574036 704.841980,594.250671 
	C703.313354,603.046204 696.784851,607.285706 687.947571,607.223572 
	C679.195007,607.162048 673.095947,602.620178 671.045105,594.026245 
	C670.171936,590.366821 670.257812,586.478455 669.922363,582.237061 
z"/>
<path fill="#030303" opacity="1.000000" stroke="none" 
	d="
M413.670135,607.144531 
	C401.322052,607.249084 395.217010,602.502747 393.659454,590.647339 
	C392.963562,585.350830 393.360504,579.644531 394.564240,574.424683 
	C396.562195,565.761108 403.218170,561.085999 411.564697,561.187134 
	C420.126038,561.290710 426.689484,565.810120 428.179596,574.703003 
	C429.298004,581.377686 429.034729,588.588684 427.800629,595.267883 
	C426.536224,602.110718 421.406555,606.311951 413.670135,607.144531 
z"/>
<path fill="#030303" opacity="1.000000" stroke="none" 
	d="
M911.468201,588.429810 
	C912.210205,582.476685 912.276306,576.705688 914.001770,571.482849 
	C916.402283,564.216858 922.516541,561.167542 930.018860,561.222168 
	C937.738525,561.278320 943.394287,565.261230 945.974915,572.505615 
	C948.558289,579.757568 948.671143,587.192932 946.514465,594.557861 
	C943.989197,603.181519 938.070801,607.382874 929.159180,607.230530 
	C920.492859,607.082458 914.595276,602.399353 912.335327,593.771118 
	C911.916626,592.172485 911.792542,590.496704 911.468201,588.429810 
z"/>
<path fill="#030303" opacity="1.000000" stroke="none" 
	d="
M170.652481,576.000793 
	C173.335785,565.724854 179.021271,560.994812 188.224670,561.066040 
	C197.298325,561.136169 203.689407,566.135864 205.197479,576.014465 
	C206.127625,582.107361 205.908554,588.650146 204.763443,594.718811 
	C203.183685,603.090881 196.819794,607.228821 187.980576,607.230774 
	C179.184128,607.232727 172.838379,603.036438 171.244415,594.660034 
	C170.119019,588.745972 170.714264,582.504395 170.652481,576.000793 
z"/>
<path fill="#030303" opacity="1.000000" stroke="none" 
	d="
M373.184631,707.330078 
	C379.604370,709.707397 382.174103,714.827576 380.574341,721.319275 
	C379.052307,727.495667 375.341156,729.429382 366.209534,728.636169 
	C366.209534,721.613037 366.209534,714.564697 366.209534,707.253296 
	C368.544037,707.253296 370.660614,707.253296 373.184631,707.330078 
z"/>
<path fill="#040404" opacity="1.000000" stroke="none" 
	d="
M474.143158,707.395203 
	C478.255890,709.055969 478.957733,712.178528 477.619202,715.301453 
	C475.459412,720.340576 470.675690,718.441711 466.384949,718.774780 
	C466.384949,714.911072 466.384949,711.221130 466.384949,707.263184 
	C468.883545,707.263184 471.312195,707.263184 474.143158,707.395203 
z"/>
<path fill="#F9F9F9" opacity="1.000000" stroke="none" 
	d="
M293.498322,378.919128 
	C291.109619,375.429565 291.037170,371.169495 293.149933,368.260193 
	C296.123383,364.165802 302.316315,363.476807 306.153046,365.545807 
	C306.386780,365.671814 306.264160,366.458679 305.955872,367.676514 
	C305.412750,368.616974 305.221130,368.818909 304.675232,368.886139 
	C301.902740,368.669128 299.484589,368.586792 296.921509,368.690063 
	C296.828369,369.074829 296.880096,369.273926 296.931824,369.473053 
	C297.002014,369.174469 297.072235,368.875854 297.538483,368.667847 
	C301.144501,369.209137 305.392242,368.905670 304.731323,373.796112 
	C304.127747,378.262115 300.388245,377.089722 297.355499,376.612518 
	C297.250061,376.595886 297.107544,376.814880 296.984131,376.968689 
	C296.985901,377.013336 297.075226,377.015503 297.355042,376.741943 
	C296.774628,376.277435 295.914368,376.086456 294.976929,376.321472 
	C294.432587,377.471344 293.965454,378.195221 293.498322,378.919128 
z"/>
<path fill="#F9F9F9" opacity="1.000000" stroke="none" 
	d="
M306.153717,379.157104 
	C307.938660,384.148041 302.288940,379.862885 302.107361,382.400208 
	C299.696259,381.823730 296.542358,383.144257 295.536316,379.365723 
	C296.628510,378.969849 297.432739,378.922791 298.631104,378.922607 
	C300.973846,378.622437 302.922485,378.275391 305.192139,378.235168 
	C305.726624,378.747070 305.940186,378.952087 306.153717,379.157104 
z"/>
<path fill="#F9F9F9" opacity="1.000000" stroke="none" 
	d="
M305.891602,368.111877 
	C311.305023,367.234467 308.213013,372.316315 310.317291,373.821838 
	C307.744720,374.626495 311.535400,379.549438 306.545776,379.100342 
	C305.940186,378.952087 305.726624,378.747070 305.324921,377.915894 
	C307.578491,374.501282 306.776245,371.754913 305.029541,369.020813 
	C305.221130,368.818909 305.412750,368.616974 305.891602,368.111877 
z"/>
<path fill="#E6E7E1" opacity="1.000000" stroke="none" 
	d="
M298.237000,378.875732 
	C297.432739,378.922791 296.628510,378.969849 295.421356,379.006104 
	C294.678070,379.006989 294.337646,379.018677 293.747803,378.974731 
	C293.965454,378.195221 294.432587,377.471344 295.260498,376.446533 
	C296.105927,376.435577 296.590576,376.725525 297.075226,377.015503 
	C297.075226,377.015503 296.985901,377.013336 296.963928,377.281830 
	C297.373627,377.992126 297.805328,378.433929 298.237000,378.875732 
z"/>
<path fill="#141414" opacity="1.000000" stroke="none" 
	d="
M298.631104,378.922607 
	C297.805328,378.433929 297.373627,377.992126 296.962158,377.237183 
	C297.107544,376.814880 297.250061,376.595886 297.355499,376.612518 
	C300.388245,377.089722 304.127747,378.262115 304.731323,373.796112 
	C305.392242,368.905670 301.144501,369.209137 297.472961,368.698212 
	C297.011444,368.637970 297.066406,368.504456 297.066406,368.504456 
	C299.484589,368.586792 301.902740,368.669128 304.675232,368.886139 
	C306.776245,371.754913 307.578491,374.501282 305.003967,377.609009 
	C302.922485,378.275391 300.973846,378.622437 298.631104,378.922607 
z"/>
<path fill="#141414" opacity="1.000000" stroke="none" 
	d="
M297.355042,376.741943 
	C296.590576,376.725525 296.105927,376.435577 295.337708,376.020569 
	C295.914368,376.086456 296.774628,376.277435 297.355042,376.741943 
z"/>
<path fill="#E6E7E1" opacity="1.000000" stroke="none" 
	d="
M297.076965,368.607605 
	C297.072235,368.875854 297.002014,369.174469 296.931824,369.473053 
	C296.880096,369.273926 296.828369,369.074829 296.921509,368.690063 
	C297.066406,368.504456 297.011444,368.637970 297.076965,368.607605 
z"/>
</svg>